<svg width="20" height="20" viewBox="0 0 20 20" fill="none" xmlns="http://www.w3.org/2000/svg">
<g id="search-icon">
<path id="Shape" fill-rule="evenodd" clip-rule="evenodd" d="M8.74522 17.5C4.57097 17.4975 0.979775 14.5467 0.167935 10.4521C-0.643905 6.35754 1.54973 2.25972 5.40726 0.66477C9.26478 -0.930176 13.7118 0.421997 16.0285 3.89432C18.3453 7.36665 17.8866 11.992 14.9329 14.9416C13.2928 16.5836 11.066 17.5043 8.74522 17.5ZM8.74518 1.75782C5.40576 1.7592 2.53238 4.1194 1.88236 7.39496C1.23234 10.6705 2.98673 13.9491 6.07257 15.2255C9.15841 16.502 12.7162 15.4208 14.57 12.6432C16.4239 9.86559 16.0574 6.16523 13.6948 3.80521C12.383 2.49138 10.6017 1.75455 8.74518 1.75782Z" fill="#BDBDBD"/>
<path id="Shape_2" fill-rule="evenodd" clip-rule="evenodd" d="M8.74522 17.5C4.57097 17.4975 0.979775 14.5467 0.167935 10.4521C-0.643905 6.35754 1.54973 2.25972 5.40726 0.66477C9.26478 -0.930176 13.7118 0.421997 16.0285 3.89432C18.3453 7.36665 17.8866 11.992 14.9329 14.9416C13.2928 16.5836 11.066 17.5043 8.74522 17.5ZM8.74518 1.75782C5.40576 1.7592 2.53238 4.1194 1.88236 7.39496C1.23234 10.6705 2.98673 13.9491 6.07257 15.2255C9.15841 16.502 12.7162 15.4208 14.57 12.6432C16.4239 9.86559 16.0574 6.16523 13.6948 3.80521C12.383 2.49138 10.6017 1.75455 8.74518 1.75782Z" fill="#BDBDBD"/>
<path id="Rectangle" fill-rule="evenodd" clip-rule="evenodd" d="M13.334 14.6664L14.6672 13.333L20.0006 18.6663L18.6674 19.9997L13.334 14.6664Z" fill="#BDBDBD"/>
</g>
</svg>
