<svg width="20" height="22" viewBox="0 0 20 22" fill="none" xmlns="http://www.w3.org/2000/svg">
<g id="search-icon">
<path id="Shape" fill-rule="evenodd" clip-rule="evenodd" d="M8.74522 18.9969C4.57098 18.9943 0.979776 15.899 0.167935 11.6039C-0.643905 7.30879 1.54973 3.01028 5.40726 1.33722C9.26479 -0.335837 13.7118 1.08256 16.0285 4.72494C18.3453 8.36732 17.8866 13.2192 14.9329 16.3132C13.2928 18.0357 11.066 19.0015 8.74522 18.9969ZM8.74521 2.48381C5.40579 2.48525 2.5324 4.96104 1.88238 8.39702C1.23236 11.833 2.98675 15.2721 6.07259 16.6111C9.15843 17.9501 12.7162 16.8159 14.5701 13.9023C16.4239 10.9886 16.0574 7.10707 13.6948 4.63146C12.3831 3.25329 10.6018 2.48037 8.74521 2.48381Z" fill="white"/>
<path id="Shape_2" fill-rule="evenodd" clip-rule="evenodd" d="M8.74522 18.9969C4.57098 18.9943 0.979776 15.899 0.167935 11.6039C-0.643905 7.30879 1.54973 3.01028 5.40726 1.33722C9.26479 -0.335837 13.7118 1.08256 16.0285 4.72494C18.3453 8.36732 17.8866 13.2192 14.9329 16.3132C13.2928 18.0357 11.066 19.0015 8.74522 18.9969ZM8.74521 2.48381C5.40579 2.48525 2.5324 4.96104 1.88238 8.39702C1.23236 11.833 2.98675 15.2721 6.07259 16.6111C9.15843 17.9501 12.7162 16.8159 14.5701 13.9023C16.4239 10.9886 16.0574 7.10707 13.6948 4.63146C12.3831 3.25329 10.6018 2.48037 8.74521 2.48381Z" fill="white"/>
<path id="Rectangle" fill-rule="evenodd" clip-rule="evenodd" d="M13.333 16.0247L14.6663 14.626L19.9996 20.2204L18.6664 21.6191L13.333 16.0247Z" fill="white"/>
</g>
</svg>
